REM DIRINDEX 1\2\4\8,1\2\4\9,1\2\4\10,1\2\5\11,1\2\5\12,1\2\5\13,1\2\5\14,1\2\5\15,1\3\6\16,1\3\6\17,1\3\6\18,1\3\7\19,1\3\7\20,1\3\7\21,1\3\7\22,1\3\7\23
REM DIRNAME "folder01","folder02","folder03","folder04","folder05","folder06","folder07","folder08","folder09","folder10","folder11","folder12","folder13","folder14","folder15","folder16","folder17","folder18","folder19","folder20","folder21","folder22","folder23"
TITLE ""
FILE "LR_black_phrase_A08.mp3" MP3
  TRACK 01 AUDIO
    TITLE "0:"
    INDEX 01 00:00:00
  TRACK 02 AUDIO
    TITLE "19:cjc171_12051"
    INDEX 01 00:00:14
  TRACK 03 AUDIO
    TITLE "0:"
    INDEX 01 00:01:33
  TRACK 04 AUDIO
    TITLE "20:cjc171_12052"
    INDEX 01 00:01:74
  TRACK 05 AUDIO
    TITLE "0:"
    INDEX 01 00:04:43
  TRACK 06 AUDIO
    TITLE "21:cjc171_12053"
    INDEX 01 00:05:41
  TRACK 07 AUDIO
    TITLE "0:"
    INDEX 01 00:07:12
  TRACK 08 AUDIO
    TITLE "22:cjc171_12054"
    INDEX 01 00:07:50
  TRACK 09 AUDIO
    TITLE "0:"
    INDEX 01 00:09:62
  TRACK 10 AUDIO
    TITLE "23:cjc171_12055"
    INDEX 01 00:10:17
  TRACK 11 AUDIO
    TITLE "0:"
    INDEX 01 00:12:31
  TRACK 12 AUDIO
    TITLE "19:cjc171_12056"
    INDEX 01 00:13:34
  TRACK 13 AUDIO
    TITLE "0:"
    INDEX 01 00:14:42
  TRACK 14 AUDIO
    TITLE "20:cjc171_12057"
    INDEX 01 00:15:08
  TRACK 15 AUDIO
    TITLE "0:"
    INDEX 01 00:16:35
  TRACK 16 AUDIO
    TITLE "21:cjc171_12058"
    INDEX 01 00:17:34
  TRACK 17 AUDIO
    TITLE "0:"
    INDEX 01 00:19:66
  TRACK 18 AUDIO
    TITLE "22:cjc171_12059"
    INDEX 01 00:20:35
  TRACK 19 AUDIO
    TITLE "0:"
    INDEX 01 00:22:37
  TRACK 20 AUDIO
    TITLE "23:cjc171_12060"
    INDEX 01 00:22:69
  TRACK 21 AUDIO
    TITLE "0:"
    INDEX 01 00:24:70
  TRACK 22 AUDIO
    TITLE "19:cjc171_12061"
    INDEX 01 00:26:00
  TRACK 23 AUDIO
    TITLE "0:"
    INDEX 01 00:27:21
  TRACK 24 AUDIO
    TITLE "20:cjc171_12062"
    INDEX 01 00:27:60
  TRACK 25 AUDIO
    TITLE "0:"
    INDEX 01 00:31:15
  TRACK 26 AUDIO
    TITLE "21:cjc171_12063"
    INDEX 01 00:32:16
  TRACK 27 AUDIO
    TITLE "0:"
    INDEX 01 00:34:33
  TRACK 28 AUDIO
    TITLE "22:cjc171_12064"
    INDEX 01 00:34:72
  TRACK 29 AUDIO
    TITLE "0:"
    INDEX 01 00:37:17
  TRACK 30 AUDIO
    TITLE "23:cjc171_12065"
    INDEX 01 00:37:47
  TRACK 31 AUDIO
    TITLE "0:"
    INDEX 01 00:39:67
  TRACK 32 AUDIO
    TITLE "19:cjc171_12066"
    INDEX 01 00:40:67
  TRACK 33 AUDIO
    TITLE "0:"
    INDEX 01 00:42:03
  TRACK 34 AUDIO
    TITLE "20:cjc171_12067"
    INDEX 01 00:42:38
  TRACK 35 AUDIO
    TITLE "0:"
    INDEX 01 00:45:21
  TRACK 36 AUDIO
    TITLE "21:cjc171_12068"
    INDEX 01 00:46:20
  TRACK 37 AUDIO
    TITLE "0:"
    INDEX 01 00:48:54
  TRACK 38 AUDIO
    TITLE "22:cjc171_12069"
    INDEX 01 00:49:15
  TRACK 39 AUDIO
    TITLE "0:"
    INDEX 01 00:51:53
  TRACK 40 AUDIO
    TITLE "23:cjc171_12070"
    INDEX 01 00:51:72
  TRACK 41 AUDIO
    TITLE "0:"
    INDEX 01 00:54:35
  TRACK 42 AUDIO
    TITLE "19:cjc171_12071"
    INDEX 01 00:55:31
  TRACK 43 AUDIO
    TITLE "0:"
    INDEX 01 00:56:52
  TRACK 44 AUDIO
    TITLE "20:cjc171_12072"
    INDEX 01 00:57:10
  TRACK 45 AUDIO
    TITLE "0:"
    INDEX 01 01:00:46
  TRACK 46 AUDIO
    TITLE "21:cjc171_12073"
    INDEX 01 01:01:45
  TRACK 47 AUDIO
    TITLE "0:"
    INDEX 01 01:03:13
  TRACK 48 AUDIO
    TITLE "22:cjc171_12074"
    INDEX 01 01:03:46
  TRACK 49 AUDIO
    TITLE "0:"
    INDEX 01 01:05:69
  TRACK 50 AUDIO
    TITLE "23:cjc171_12075"
    INDEX 01 01:06:11
  TRACK 51 AUDIO
    TITLE "0:"
    INDEX 01 01:08:34
  TRACK 52 AUDIO
    TITLE "19:cjc171_12076"
    INDEX 01 01:09:27
  TRACK 53 AUDIO
    TITLE "0:"
    INDEX 01 01:10:42
  TRACK 54 AUDIO
    TITLE "20:cjc171_12077"
    INDEX 01 01:11:04
  TRACK 55 AUDIO
    TITLE "0:"
    INDEX 01 01:12:25
  TRACK 56 AUDIO
    TITLE "21:cjc171_12078"
    INDEX 01 01:13:25
  TRACK 57 AUDIO
    TITLE "0:"
    INDEX 01 01:15:69
  TRACK 58 AUDIO
    TITLE "22:cjc171_12079"
    INDEX 01 01:16:27
  TRACK 59 AUDIO
    TITLE "0:"
    INDEX 01 01:18:32
  TRACK 60 AUDIO
    TITLE "23:cjc171_12080"
    INDEX 01 01:18:52
  TRACK 61 AUDIO
    TITLE "0:"
    INDEX 01 01:20:56
  TRACK 62 AUDIO
    TITLE "19:cjc171_12081"
    INDEX 01 01:21:52
  TRACK 63 AUDIO
    TITLE "0:"
    INDEX 01 01:23:08
  TRACK 64 AUDIO
    TITLE "20:cjc171_12082"
    INDEX 01 01:23:49
  TRACK 65 AUDIO
    TITLE "0:"
    INDEX 01 01:26:57
  TRACK 66 AUDIO
    TITLE "21:cjc171_12083"
    INDEX 01 01:27:56
  TRACK 67 AUDIO
    TITLE "0:"
    INDEX 01 01:30:06
  TRACK 68 AUDIO
    TITLE "22:cjc171_12084"
    INDEX 01 01:30:45
  TRACK 69 AUDIO
    TITLE "0:"
    INDEX 01 01:33:12
  TRACK 70 AUDIO
    TITLE "23:cjc171_12085"
    INDEX 01 01:33:41
  TRACK 71 AUDIO
    TITLE "0:"
    INDEX 01 01:36:08
  TRACK 72 AUDIO
    TITLE "19:cjc171_12086"
    INDEX 01 01:37:16
  TRACK 73 AUDIO
    TITLE "0:"
    INDEX 01 01:38:43
  TRACK 74 AUDIO
    TITLE "20:cjc171_12087"
    INDEX 01 01:39:07
  TRACK 75 AUDIO
    TITLE "0:"
    INDEX 01 01:40:28
  TRACK 76 AUDIO
    TITLE "21:cjc171_12088"
    INDEX 01 01:41:27
  TRACK 77 AUDIO
    TITLE "0:"
    INDEX 01 01:43:53
  TRACK 78 AUDIO
    TITLE "22:cjc171_12089"
    INDEX 01 01:44:20
  TRACK 79 AUDIO
    TITLE "0:"
    INDEX 01 01:46:54
  TRACK 80 AUDIO
    TITLE "23:cjc171_12090"
    INDEX 01 01:47:10
  TRACK 81 AUDIO
    TITLE "0:"
    INDEX 01 01:49:44
  TRACK 82 AUDIO
    TITLE "19:cjc171_12091"
    INDEX 01 01:50:50
  TRACK 83 AUDIO
    TITLE "0:"
    INDEX 01 01:51:67
  TRACK 84 AUDIO
    TITLE "20:cjc171_12092"
    INDEX 01 01:52:27
  TRACK 85 AUDIO
    TITLE "0:"
    INDEX 01 01:55:57
  TRACK 86 AUDIO
    TITLE "21:cjc171_12093"
    INDEX 01 01:56:56
  TRACK 87 AUDIO
    TITLE "0:"
    INDEX 01 01:58:37
  TRACK 88 AUDIO
    TITLE "22:cjc171_12094"
    INDEX 01 01:58:71
  TRACK 89 AUDIO
    TITLE "0:"
    INDEX 01 02:00:58
  TRACK 90 AUDIO
    TITLE "23:cjc171_12095"
    INDEX 01 02:01:06
  TRACK 91 AUDIO
    TITLE "0:"
    INDEX 01 02:02:68
  TRACK 92 AUDIO
    TITLE "19:cjc171_12096"
    INDEX 01 02:03:68
  TRACK 93 AUDIO
    TITLE "0:"
    INDEX 01 02:05:12
  TRACK 94 AUDIO
    TITLE "20:cjc171_12097"
    INDEX 01 02:05:47
  TRACK 95 AUDIO
    TITLE "0:"
    INDEX 01 02:08:55
  TRACK 96 AUDIO
    TITLE "21:cjc171_12098"
    INDEX 01 02:09:49
  TRACK 97 AUDIO
    TITLE "0:"
    INDEX 01 02:11:13
  TRACK 98 AUDIO
    TITLE "22:cjc171_12099"
    INDEX 01 02:11:48
  TRACK 99 AUDIO
    TITLE "0:"
    INDEX 01 02:13:51
  TRACK 100 AUDIO
    TITLE "23:cjc171_12100"
    INDEX 01 02:13:72
  TRACK 101 AUDIO
    TITLE "0:"
    INDEX 01 02:16:02
  TRACK 102 AUDIO
    TITLE "19:cjc171_12101"
    INDEX 01 02:16:73
  TRACK 103 AUDIO
    TITLE "0:"
    INDEX 01 02:18:13
  TRACK 104 AUDIO
    TITLE "20:cjc171_12102"
    INDEX 01 02:18:50
  TRACK 105 AUDIO
    TITLE "0:"
    INDEX 01 02:19:71
  TRACK 106 AUDIO
    TITLE "21:cjc171_12103"
    INDEX 01 02:20:70
  TRACK 107 AUDIO
    TITLE "0:"
    INDEX 01 02:23:28
  TRACK 108 AUDIO
    TITLE "22:cjc171_12104"
    INDEX 01 02:23:59
  TRACK 109 AUDIO
    TITLE "0:"
    INDEX 01 02:26:12
  TRACK 110 AUDIO
    TITLE "23:cjc171_12105"
    INDEX 01 02:26:32
  TRACK 111 AUDIO
    TITLE "0:"
    INDEX 01 02:28:58
  TRACK 112 AUDIO
    TITLE "19:cjc171_12106"
    INDEX 01 02:29:56
  TRACK 113 AUDIO
    TITLE "0:"
    INDEX 01 02:30:53
  TRACK 114 AUDIO
    TITLE "20:cjc171_12107"
    INDEX 01 02:31:25
  TRACK 115 AUDIO
    TITLE "0:"
    INDEX 01 02:34:49
  TRACK 116 AUDIO
    TITLE "21:cjc171_12108"
    INDEX 01 02:35:50
  TRACK 117 AUDIO
    TITLE "0:"
    INDEX 01 02:38:27
  TRACK 118 AUDIO
    TITLE "22:cjc171_12109"
    INDEX 01 02:38:58
  TRACK 119 AUDIO
    TITLE "0:"
    INDEX 01 02:41:57
  TRACK 120 AUDIO
    TITLE "23:cjc171_12110"
    INDEX 01 02:42:05
  TRACK 121 AUDIO
    TITLE "0:"
    INDEX 01 02:45:02
  TRACK 122 AUDIO
    TITLE "19:cjc171_12111"
    INDEX 01 02:45:74
  TRACK 123 AUDIO
    TITLE "0:"
    INDEX 01 02:47:12
  TRACK 124 AUDIO
    TITLE "20:cjc171_12112"
    INDEX 01 02:47:53
  TRACK 125 AUDIO
    TITLE "0:"
    INDEX 01 02:51:18
  TRACK 126 AUDIO
    TITLE "21:cjc171_12113"
    INDEX 01 02:52:13
  TRACK 127 AUDIO
    TITLE "0:"
    INDEX 01 02:53:50
  TRACK 128 AUDIO
    TITLE "22:cjc171_12114"
    INDEX 01 02:54:22
  TRACK 129 AUDIO
    TITLE "0:"
    INDEX 01 02:56:13
  TRACK 130 AUDIO
    TITLE "23:cjc171_12115"
    INDEX 01 02:56:43
  TRACK 131 AUDIO
    TITLE "0:"
    INDEX 01 02:58:36
  TRACK 132 AUDIO
    TITLE "19:cjc171_12116"
    INDEX 01 02:59:41
  TRACK 133 AUDIO
    TITLE "0:"
    INDEX 01 03:00:56
  TRACK 134 AUDIO
    TITLE "20:cjc171_12117"
    INDEX 01 03:01:20
  TRACK 135 AUDIO
    TITLE "0:"
    INDEX 01 03:03:07
  TRACK 136 AUDIO
    TITLE "21:cjc171_12118"
    INDEX 01 03:04:03
  TRACK 137 AUDIO
    TITLE "0:"
    INDEX 01 03:06:49
  TRACK 138 AUDIO
    TITLE "22:cjc171_12119"
    INDEX 01 03:07:07
  TRACK 139 AUDIO
    TITLE "0:"
    INDEX 01 03:09:30
  TRACK 140 AUDIO
    TITLE "23:cjc171_12120"
    INDEX 01 03:09:51
  TRACK 141 AUDIO
    TITLE "0:"
    INDEX 01 03:12:01
  TRACK 142 AUDIO
    TITLE "19:cjc171_12121"
    INDEX 01 03:13:04
  TRACK 143 AUDIO
    TITLE "0:"
    INDEX 01 03:14:07
  TRACK 144 AUDIO
    TITLE "20:cjc171_12122"
    INDEX 01 03:14:44
  TRACK 145 AUDIO
    TITLE "0:"
    INDEX 01 03:17:10
  TRACK 146 AUDIO
    TITLE "21:cjc171_12123"
    INDEX 01 03:18:09
  TRACK 147 AUDIO
    TITLE "0:"
    INDEX 01 03:20:06
  TRACK 148 AUDIO
    TITLE "22:cjc171_12124"
    INDEX 01 03:20:45
  TRACK 149 AUDIO
    TITLE "0:"
    INDEX 01 03:22:03
  TRACK 150 AUDIO
    TITLE "23:cjc171_12125"
    INDEX 01 03:22:30
  TRACK 151 AUDIO
    TITLE "0:"
    INDEX 01 03:23:61
  TRACK 152 AUDIO
    TITLE "19:cjc171_12126"
    INDEX 01 03:24:61
  TRACK 153 AUDIO
    TITLE "0:"
    INDEX 01 03:26:10
  TRACK 154 AUDIO
    TITLE "20:cjc171_12127"
    INDEX 01 03:26:44
  TRACK 155 AUDIO
    TITLE "0:"
    INDEX 01 03:29:07
  TRACK 156 AUDIO
    TITLE "21:cjc171_12128"
    INDEX 01 03:30:08
  TRACK 157 AUDIO
    TITLE "0:"
    INDEX 01 03:32:11
  TRACK 158 AUDIO
    TITLE "22:cjc171_12129"
    INDEX 01 03:32:46
  TRACK 159 AUDIO
    TITLE "0:"
    INDEX 01 03:34:51
  TRACK 160 AUDIO
    TITLE "23:cjc171_12130"
    INDEX 01 03:35:00
  TRACK 161 AUDIO
    TITLE "0:"
    INDEX 01 03:37:04
  TRACK 162 AUDIO
    TITLE "19:cjc171_12131"
    INDEX 01 03:38:08
  TRACK 163 AUDIO
    TITLE "0:"
    INDEX 01 03:39:25
  TRACK 164 AUDIO
    TITLE "20:cjc171_12132"
    INDEX 01 03:39:60
  TRACK 165 AUDIO
    TITLE "0:"
    INDEX 01 03:43:48
  TRACK 166 AUDIO
    TITLE "21:cjc171_12133"
    INDEX 01 03:44:48
  TRACK 167 AUDIO
    TITLE "0:"
    INDEX 01 03:45:69
  TRACK 168 AUDIO
    TITLE "22:cjc171_12134"
    INDEX 01 03:46:27
  TRACK 169 AUDIO
    TITLE "0:"
    INDEX 01 03:48:14
  TRACK 170 AUDIO
    TITLE "23:cjc171_12135"
    INDEX 01 03:48:32
  TRACK 171 AUDIO
    TITLE "0:"
    INDEX 01 03:50:19
  TRACK 172 AUDIO
    TITLE "19:cjc171_12136"
    INDEX 01 03:51:12
  TRACK 173 AUDIO
    TITLE "0:"
    INDEX 01 03:52:22
  TRACK 174 AUDIO
    TITLE "20:cjc171_12137"
    INDEX 01 03:52:57
  TRACK 175 AUDIO
    TITLE "0:"
    INDEX 01 03:56:31
  TRACK 176 AUDIO
    TITLE "21:cjc171_12138"
    INDEX 01 03:57:29
  TRACK 177 AUDIO
    TITLE "0:"
    INDEX 01 03:59:24
  TRACK 178 AUDIO
    TITLE "22:cjc171_12139"
    INDEX 01 03:59:57
  TRACK 179 AUDIO
    TITLE "0:"
    INDEX 01 04:01:50
  TRACK 180 AUDIO
    TITLE "23:cjc171_12140"
    INDEX 01 04:02:00
  TRACK 181 AUDIO
    TITLE "0:"
    INDEX 01 04:03:57
  TRACK 182 AUDIO
    TITLE "19:cjc171_12141"
    INDEX 01 04:04:72
  TRACK 183 AUDIO
    TITLE "0:"
    INDEX 01 04:06:33
  TRACK 184 AUDIO
    TITLE "20:cjc171_12142"
    INDEX 01 04:07:00
  TRACK 185 AUDIO
    TITLE "0:"
    INDEX 01 04:11:03
  TRACK 186 AUDIO
    TITLE "21:cjc171_12143"
    INDEX 01 04:12:03
  TRACK 187 AUDIO
    TITLE "0:"
    INDEX 01 04:15:30
  TRACK 188 AUDIO
    TITLE "22:cjc171_12144"
    INDEX 01 04:15:70
  TRACK 189 AUDIO
    TITLE "0:"
    INDEX 01 04:19:22
  TRACK 190 AUDIO
    TITLE "23:cjc171_12145"
    INDEX 01 04:19:52
  TRACK 191 AUDIO
    TITLE "0:"
    INDEX 01 04:23:04
  TRACK 192 AUDIO
    TITLE "19:cjc171_12146"
    INDEX 01 04:24:10
  TRACK 193 AUDIO
    TITLE "0:"
    INDEX 01 04:25:13
  TRACK 194 AUDIO
    TITLE "20:cjc171_12147"
    INDEX 01 04:25:50
  TRACK 195 AUDIO
    TITLE "0:"
    INDEX 01 04:26:56
  TRACK 196 AUDIO
    TITLE "21:cjc171_12148"
    INDEX 01 04:27:55
  TRACK 197 AUDIO
    TITLE "0:"
    INDEX 01 04:30:14
  TRACK 198 AUDIO
    TITLE "22:cjc171_12149"
    INDEX 01 04:30:52
  TRACK 199 AUDIO
    TITLE "0:"
    INDEX 01 04:32:66
  TRACK 200 AUDIO
    TITLE "23:cjc171_12150"
    INDEX 01 04:33:19
  TRACK 201 AUDIO
    TITLE "0:"
    INDEX 01 04:35:33
  TRACK 202 AUDIO
    TITLE "19:cjc171_12151"
    INDEX 01 04:36:37
  TRACK 203 AUDIO
    TITLE "0:"
    INDEX 01 04:37:57
  TRACK 204 AUDIO
    TITLE "20:cjc171_12152"
    INDEX 01 04:38:20
  TRACK 205 AUDIO
    TITLE "0:"
    INDEX 01 04:40:72
  TRACK 206 AUDIO
    TITLE "21:cjc171_12153"
    INDEX 01 04:41:69
  TRACK 207 AUDIO
    TITLE "0:"
    INDEX 01 04:43:72
  TRACK 208 AUDIO
    TITLE "22:cjc171_12154"
    INDEX 01 04:44:36
  TRACK 209 AUDIO
    TITLE "0:"
    INDEX 01 04:46:66
  TRACK 210 AUDIO
    TITLE "23:cjc171_12155"
    INDEX 01 04:47:19
  TRACK 211 AUDIO
    TITLE "0:"
    INDEX 01 04:49:49
  TRACK 212 AUDIO
    TITLE "19:cjc171_12156"
    INDEX 01 04:50:46
  TRACK 213 AUDIO
    TITLE "0:"
    INDEX 01 04:51:63
  TRACK 214 AUDIO
    TITLE "20:cjc171_12157"
    INDEX 01 04:52:22
  TRACK 215 AUDIO
    TITLE "0:"
    INDEX 01 04:54:50
  TRACK 216 AUDIO
    TITLE "21:cjc171_12158"
    INDEX 01 04:55:52
  TRACK 217 AUDIO
    TITLE "0:"
    INDEX 01 04:57:46
  TRACK 218 AUDIO
    TITLE "22:cjc171_12159"
    INDEX 01 04:58:05
  TRACK 219 AUDIO
    TITLE "0:"
    INDEX 01 05:00:23
  TRACK 220 AUDIO
    TITLE "23:cjc171_12160"
    INDEX 01 05:00:43
  TRACK 221 AUDIO
    TITLE "0:"
    INDEX 01 05:02:61
  TRACK 222 AUDIO
    TITLE "19:cjc171_12161"
    INDEX 01 05:03:55
  TRACK 223 AUDIO
    TITLE "0:"
    INDEX 01 05:05:24
  TRACK 224 AUDIO
    TITLE "20:cjc171_12162"
    INDEX 01 05:05:60
  TRACK 225 AUDIO
    TITLE "0:"
    INDEX 01 05:08:27
  TRACK 226 AUDIO
    TITLE "21:cjc171_12163"
    INDEX 01 05:09:28
  TRACK 227 AUDIO
    TITLE "0:"
    INDEX 01 05:11:23
  TRACK 228 AUDIO
    TITLE "22:cjc171_12164"
    INDEX 01 05:11:56
  TRACK 229 AUDIO
    TITLE "0:"
    INDEX 01 05:14:31
  TRACK 230 AUDIO
    TITLE "23:cjc171_12165"
    INDEX 01 05:14:49
  TRACK 231 AUDIO
    TITLE "0:"
    INDEX 01 05:17:24
  TRACK 232 AUDIO
    TITLE "19:cjc171_12166"
    INDEX 01 05:18:17
  TRACK 233 AUDIO
    TITLE "0:"
    INDEX 01 05:19:25
  TRACK 234 AUDIO
    TITLE "20:cjc171_12167"
    INDEX 01 05:19:60
  TRACK 235 AUDIO
    TITLE "0:"
    INDEX 01 05:21:31
  TRACK 236 AUDIO
    TITLE "21:cjc171_12168"
    INDEX 01 05:22:31
  TRACK 237 AUDIO
    TITLE "0:"
    INDEX 01 05:24:39
  TRACK 238 AUDIO
    TITLE "22:cjc171_12169"
    INDEX 01 05:25:00
  TRACK 239 AUDIO
    TITLE "0:"
    INDEX 01 05:27:06
  TRACK 240 AUDIO
    TITLE "23:cjc171_12170"
    INDEX 01 05:27:28
  TRACK 241 AUDIO
    TITLE "0:"
    INDEX 01 05:29:33
  TRACK 242 AUDIO
    TITLE "19:cjc171_12171"
    INDEX 01 05:30:34
  TRACK 243 AUDIO
    TITLE "0:"
    INDEX 01 05:31:53
  TRACK 244 AUDIO
    TITLE "20:cjc171_12172"
    INDEX 01 05:32:17
  TRACK 245 AUDIO
    TITLE "0:"
    INDEX 01 05:33:29
  TRACK 246 AUDIO
    TITLE "21:cjc171_12173"
    INDEX 01 05:34:28
  TRACK 247 AUDIO
    TITLE "0:"
    INDEX 01 05:36:33
  TRACK 248 AUDIO
    TITLE "22:cjc171_12174"
    INDEX 01 05:36:72
  TRACK 249 AUDIO
    TITLE "0:"
    INDEX 01 05:39:31
  TRACK 250 AUDIO
    TITLE "23:cjc171_12175"
    INDEX 01 05:39:59
  TRACK 251 AUDIO
    TITLE "0:"
    INDEX 01 05:42:18
  TRACK 252 AUDIO
    TITLE "19:cjc171_12176"
    INDEX 01 05:43:21
  TRACK 253 AUDIO
    TITLE "0:"
    INDEX 01 05:44:24
  TRACK 254 AUDIO
    TITLE "20:cjc171_12177"
    INDEX 01 05:44:62
  TRACK 255 AUDIO
    TITLE "0:"
    INDEX 01 05:45:69
  TRACK 256 AUDIO
    TITLE "21:cjc171_12178"
    INDEX 01 05:46:70
  TRACK 257 AUDIO
    TITLE "0:"
    INDEX 01 05:48:38
  TRACK 258 AUDIO
    TITLE "22:cjc171_12179"
    INDEX 01 05:49:02
  TRACK 259 AUDIO
    TITLE "0:"
    INDEX 01 05:50:51
  TRACK 260 AUDIO
    TITLE "23:cjc171_12180"
    INDEX 01 05:51:03
  TRACK 261 AUDIO
    TITLE "0:"
    INDEX 01 05:52:49
  TRACK 262 AUDIO
    TITLE "19:cjc171_12181"
    INDEX 01 05:53:53
  TRACK 263 AUDIO
    TITLE "0:"
    INDEX 01 05:54:72
  TRACK 264 AUDIO
    TITLE "20:cjc171_12182"
    INDEX 01 05:55:38
  TRACK 265 AUDIO
    TITLE "0:"
    INDEX 01 05:57:02
  TRACK 266 AUDIO
    TITLE "21:cjc171_12183"
    INDEX 01 05:58:05
  TRACK 267 AUDIO
    TITLE "0:"
    INDEX 01 06:00:72
  TRACK 268 AUDIO
    TITLE "22:cjc171_12184"
    INDEX 01 06:01:37
  TRACK 269 AUDIO
    TITLE "0:"
    INDEX 01 06:04:21
  TRACK 270 AUDIO
    TITLE "23:cjc171_12185"
    INDEX 01 06:04:49
  TRACK 271 AUDIO
    TITLE "0:"
    INDEX 01 06:07:35
  TRACK 272 AUDIO
    TITLE "19:cjc171_12186"
    INDEX 01 06:08:35
  TRACK 273 AUDIO
    TITLE "0:"
    INDEX 01 06:09:38
  TRACK 274 AUDIO
    TITLE "20:cjc171_12187"
    INDEX 01 06:09:73
  TRACK 275 AUDIO
    TITLE "0:"
    INDEX 01 06:11:68
  TRACK 276 AUDIO
    TITLE "21:cjc171_12188"
    INDEX 01 06:12:68
  TRACK 277 AUDIO
    TITLE "0:"
    INDEX 01 06:15:60
  TRACK 278 AUDIO
    TITLE "22:cjc171_12189"
    INDEX 01 06:16:21
  TRACK 279 AUDIO
    TITLE "0:"
    INDEX 01 06:18:57
  TRACK 280 AUDIO
    TITLE "23:cjc171_12190"
    INDEX 01 06:19:01
  TRACK 281 AUDIO
    TITLE "0:"
    INDEX 01 06:21:39
  TRACK 282 AUDIO
    TITLE "19:cjc171_12191"
    INDEX 01 06:22:35
  TRACK 283 AUDIO
    TITLE "0:"
    INDEX 01 06:23:30
  TRACK 284 AUDIO
    TITLE "20:cjc171_12192"
    INDEX 01 06:23:68
  TRACK 285 AUDIO
    TITLE "0:"
    INDEX 01 06:26:23
  TRACK 286 AUDIO
    TITLE "21:cjc171_12193"
    INDEX 01 06:27:18
  TRACK 287 AUDIO
    TITLE "0:"
    INDEX 01 06:30:03
  TRACK 288 AUDIO
    TITLE "22:cjc171_12194"
    INDEX 01 06:30:38
  TRACK 289 AUDIO
    TITLE "0:"
    INDEX 01 06:32:51
  TRACK 290 AUDIO
    TITLE "23:cjc171_12195"
    INDEX 01 06:32:72
  TRACK 291 AUDIO
    TITLE "0:"
    INDEX 01 06:35:12
  TRACK 292 AUDIO
    TITLE "19:cjc171_12196"
    INDEX 01 06:36:08
  TRACK 293 AUDIO
    TITLE "0:"
    INDEX 01 06:37:29
  TRACK 294 AUDIO
    TITLE "20:cjc171_12197"
    INDEX 01 06:37:64
  TRACK 295 AUDIO
    TITLE "0:"
    INDEX 01 06:39:24
  TRACK 296 AUDIO
    TITLE "21:cjc171_12198"
    INDEX 01 06:40:21
  TRACK 297 AUDIO
    TITLE "0:"
    INDEX 01 06:41:70
  TRACK 298 AUDIO
    TITLE "22:cjc171_12199"
    INDEX 01 06:42:30
  TRACK 299 AUDIO
    TITLE "0:"
    INDEX 01 06:44:05
  TRACK 300 AUDIO
    TITLE "23:cjc171_12200"
    INDEX 01 06:44:23
  TRACK 301 AUDIO
    TITLE "0:"
    INDEX 01 06:45:71
